<?xml version="1.0" encoding="UTF-8"?>
<svg id="Layer_1" xmlns="http://www.w3.org/2000/svg" version="1.1" viewBox="0 0 960 560">
  <!-- Generator: Adobe Illustrator 30.2.1, SVG Export Plug-In . SVG Version: 2.1.1 Build 1)  -->
  <defs>
    <style>
      .st0 {
        fill: #1e0b55;
      }

      .st1 {
        fill: #fdf6ed;
      }

      .st2 {
        fill: #ffb707;
      }

      .st3 {
        fill: #2690aa;
      }

      .st4 {
        fill: #69d0fe;
      }
    </style>
  </defs>
  <rect class="st1" x="0" width="960" height="560"/>
  <rect class="st3" x="0" y="359.06" width="960" height="13"/>
  <rect class="st3" x="0" y="355" width="960" height="2"/>
  <rect class="st3" x="0" y="312" width="960" height="35"/>
  <rect class="st3" x="0" y="245" width="960" height="62"/>
  <rect class="st3" x="0" y="352.09" width="960" height="1"/>
  <rect class="st2" x="0" y="81" width="960" height="22"/>
  <rect class="st4" x="0" y="145" width="960" height="33"/>
  <rect class="st2" x="0" y="108" width="960" height="11"/>
  <rect class="st2" x="0" y="122" width="960" height="4"/>
  <rect class="st4" x="0" y="197" width="960" height="2"/>
  <rect class="st4" x="0" y="189" width="960" height="4"/>
  <rect class="st4" x="0" y="182" width="960" height="4"/>
  <rect class="st2" x="0" y="76" width="960" height="4"/>
  <rect class="st0" y="468" width="960" height="94"/>
  <rect class="st0" y="443" width="960" height="19"/>
  <rect class="st0" x="0" y="429.62" width="960" height="7.37"/>
</svg>